# xmcd
#
# Track frame offsets:
#	150
#	20256
#	35385
#	51040
#	70300
#	86858
#	103390
#	123479
#	140661
#	160311
#	179883
#	198532
#	216334
#	233901
#	254104
#	272569
#	288776
#	305812
#	327379
#
# Disc length: 4588
#
# Revision: 4
# Processed by: cddbd v1.5.1PL0 Copyright (c) Steve Scherf et al.
# Submitted via: FreeRIP 2.90 
# Normalized: r3:DSETVAR1,TDELIM( - )
#
DISCID=3411ea13
DTITLE=Various Artist - Promo Only Urban October 2004
DYEAR=2004
DGENRE=Hip-Hop
TTITLE0=R. Kelly - If
TTITLE1=Jarvis - Radio
TTITLE2=John Legend - Used To Love U
TTITLE3=Raphael Sadiq feat. Tony! Toni! Tone! and Lucy Pearl - Rifle Love (Gunless Version)
TTITLE4=Trick Daddy feat. Twista and Lil' Jon v - Let's Go
TTITLE5=Usher and Alicia Keys - My Boo
TTITLE6=Fabolous - Breathe
TTITLE7=Mannie Fresh - Real Big
TTITLE8=Outkast - Prototype
TTITLE9=Teena Marie feat. Gerald Levert - A Rose By Any Other Name
TTITLE10=E-40 feat. Lil' Mo - Thick and Thin
TTITLE11=Mobb Deep feat. Lil' Jon - Real Gangstaz
TTITLE12=Nelly - Flap Your Wings
TTITLE13=Nelly feat. Jaheim - My Place
TTITLE14=Juvenille - Slow Motion
TTITLE15=Lil' Flip - Sunshine
TTITLE16=Lenny Kravitz feat. Jay-Z - Storm (Just Blaze Remix)
TTITLE17=Magic - I Smoke I Drank (Remix)
TTITLE18=Yohany - At The Bar
EXTD=
EXTT0=
EXTT1=
EXTT2=
EXTT3=
EXTT4=
EXTT5=
EXTT6=
EXTT7=
EXTT8=
EXTT9=
EXTT10=
EXTT11=
EXTT12=
EXTT13=
EXTT14=
EXTT15=
EXTT16=
EXTT17=
EXTT18=
PLAYORDER=
